<svg xmlns="http://www.w3.org/2000/svg" width="562" height="534" viewBox="0 0 562 534">
  <g id="Groupe_4" data-name="Groupe 4" transform="translate(-635 -218)">
    <g id="Polygone_1" data-name="Polygone 1" transform="translate(635 218)" fill="#333">
      <path d="M 221.9046325683594 477.9016723632812 C 210.5163269042969 477.9022827148438 196.8188629150391 470.6898193359375 193.6561737060547 454.8529052734375 C 188.1800231933594 427.4316711425781 164.024169921875 407.6069030761719 136.1974792480469 407.6069030761719 C 133.9195556640625 407.6069030761719 131.6204071044922 407.7394409179688 129.3063354492188 408.0117492675781 C 127.9708633422852 408.1689758300781 126.7817153930664 408.2384338378906 125.6135559082031 408.2384948730469 C 115.951789855957 408.2389831542969 107.0131759643555 403.2881164550781 101.7027130126953 394.9949645996094 C 96.35640716552734 386.6459045410156 95.67848205566406 376.673583984375 99.84271240234375 367.6351318359375 C 112.5512542724609 340.0512084960938 101.7520980834961 306.8157348632812 75.25748443603516 291.9713439941406 C 66.08994293212891 286.8349609375 60.61679077148438 277.4981994628906 60.61679077148438 266.9955139160156 C 60.61679077148438 256.4983520507812 66.08448028564453 247.1678924560547 75.24294281005859 242.0365905761719 C 101.7457885742188 227.1876678466797 112.5516357421875 193.9492034912109 99.84355926513672 166.3661193847656 C 95.67963409423828 157.3283538818359 96.35771179199219 147.3562774658203 101.7039413452148 139.0068206787109 C 107.0146331787109 130.7128143310547 115.9531784057617 125.7611999511719 125.6144027709961 125.7611999511719 C 126.7836380004883 125.7611999511719 127.9700241088867 125.8306655883789 129.1753234863281 125.9724349975586 C 131.6184844970703 126.259895324707 133.9217071533203 126.3927383422852 136.1978607177734 126.3927383422852 C 164.0244750976562 126.3927383422852 188.1802520751953 106.5679702758789 193.6349487304688 79.25389099121094 C 196.8188629150391 63.31066131591797 210.5168609619141 56.09796905517578 221.9056396484375 56.09796905517578 C 226.9018707275391 56.09796905517578 234.2907104492188 57.41997146606445 241.1181793212891 63.71797180175781 C 252.1135559082031 73.86058807373047 266.2272644042969 79.37619781494141 280.9988708496094 79.37751007080078 C 280.999755859375 79.37751007080078 281.0028991699219 79.37751007080078 281.0038146972656 79.37751007080078 C 295.7734375 79.37751007080078 309.8848266601562 73.86243438720703 320.7427978515625 63.84643173217773 C 327.7088012695312 57.42050933837891 335.0977172851562 56.0985107421875 340.0940246582031 56.0985107421875 C 351.4827270507812 56.0985107421875 365.1807250976562 63.31120300292969 368.3433227539062 79.14712524414062 C 373.8195495605469 106.5681991577148 397.975341796875 126.3928146362305 425.8018798828125 126.3928146362305 C 428.0798034667969 126.3928146362305 430.3791809082031 126.2602767944336 432.6932373046875 125.9879684448242 C 434.027099609375 125.8310470581055 435.2160949707031 125.7613525390625 436.3840942382812 125.7613525390625 C 446.0467834472656 125.7613525390625 454.9859313964844 130.7128143310547 460.2963256835938 139.0065155029297 C 465.6420288085938 147.3551940917969 466.3196411132812 157.3270416259766 462.1554870605469 166.3651275634766 C 449.4466247558594 193.9487457275391 460.2459411621094 227.1841278076172 486.7412414550781 242.0287475585938 C 495.9087219238281 247.1649780273438 501.3817749023438 256.5017395019531 501.3817749023438 267.0044250488281 C 501.3817749023438 277.5017395019531 495.9139404296875 286.8322143554688 486.7553405761719 291.9635009765625 C 460.2521057128906 306.8121948242188 449.4465637207031 340.0509643554688 462.1553955078125 367.6346740722656 C 466.3186340332031 376.670654296875 465.640869140625 386.64111328125 460.2959289550781 394.9895935058594 C 454.985107421875 403.28466796875 446.0456237792969 408.2375183105469 436.3827209472656 408.2383422851562 C 435.2138671875 408.2384338378906 434.0281677246094 408.1688842773438 432.8232421875 408.0271301269531 C 430.380859375 407.7396545410156 428.0780944824219 407.6069030761719 425.8019409179688 407.6069030761719 C 397.975341796875 407.6069030761719 373.8194885253906 427.4315795898438 368.3647155761719 454.7455749511719 C 365.1809387207031 470.6876525878906 351.4823913574219 477.9007263183594 340.093017578125 477.9014282226562 C 335.0975646972656 477.9018249511719 327.70947265625 476.5800476074219 320.8813171386719 470.2813415527344 C 309.88525390625 460.1379699707031 295.7709350585938 454.6221923828125 280.9997253417969 454.6221923828125 C 266.2286376953125 454.6221923828125 252.1145629882812 460.1379089355469 241.2574005126953 470.1531372070312 C 234.2910919189453 476.5791931152344 226.9015655517578 477.9013671875 221.9046325683594 477.9016723632812 Z" stroke="none"/>
      <path d="M 221.9078674316406 71.09799194335938 C 216.4423217773438 71.09835815429688 209.8732299804688 74.53652954101562 208.3445129394531 82.1912841796875 C 201.4940490722656 116.4949035644531 171.1519775390625 141.3927307128906 136.1976928710938 141.3927307128906 C 133.3428649902344 141.3927307128906 130.4541320800781 141.2263488769531 127.4221496582031 140.86962890625 C 126.8112487792969 140.7977294921875 126.2100524902344 140.7610778808594 125.61669921875 140.7611694335938 C 119.0959777832031 140.76171875 115.5553283691406 145.1923522949219 114.335693359375 147.09716796875 C 112.8470458984375 149.4222717285156 110.7546997070312 154.2019958496094 113.467041015625 160.08935546875 C 129.4274291992188 194.7311706542969 115.8578796386719 236.4748229980469 82.57470703125 255.1227111816406 C 76.52069091796875 258.5146484375 75.61679077148438 264.0172729492188 75.61669921875 266.9954528808594 C 75.61669921875 269.9769897460938 76.52261352539062 275.4862670898438 82.5892333984375 278.88525390625 C 115.8641357421875 297.528564453125 129.4269714355469 339.2691040039062 113.4663391113281 373.9118041992188 C 110.7533264160156 379.8003540039062 112.8457946777344 384.5800170898438 114.3344116210938 386.9049987792969 C 115.5537719726562 388.8092651367188 119.0937805175781 393.2384643554688 125.6141357421875 393.2384643554688 C 126.2073364257812 393.2384643554688 126.8110656738281 393.201904296875 127.5536804199219 393.1144409179688 C 130.4562377929688 392.7730102539062 133.3402404785156 392.6069030761719 136.197509765625 392.6069030761719 C 171.151611328125 392.6069030761719 201.4936828613281 417.504638671875 208.3656921386719 451.9153442382812 C 209.8731384277344 459.463623046875 216.4409790039062 462.9016418457031 221.9054260253906 462.9016418457031 C 225.282958984375 462.9016418457031 228.3252258300781 461.6750793457031 231.0867004394531 459.1277160644531 C 244.7222290039062 446.5493774414062 262.4484252929688 439.6221923828125 280.9997863769531 439.6221923828125 C 299.5512390136719 439.6221923828125 317.2774047851562 446.5494384765625 331.0519714355469 459.2559204101562 C 333.6742553710938 461.6749267578125 336.7164306640625 462.9014587402344 340.0940551757812 462.9014587402344 C 345.5584106445312 462.9014587402344 352.126220703125 459.4634399414062 353.6551513671875 451.8079833984375 C 360.5057983398438 417.5045471191406 390.8478698730469 392.6069030761719 425.8018798828125 392.6069030761719 C 428.6566772460938 392.6069030761719 431.5452270507812 392.7732543945312 434.5762329101562 393.1298217773438 C 435.188232421875 393.2018127441406 435.79052734375 393.23828125 436.3841552734375 393.23828125 C 442.9027709960938 393.23828125 446.4430541992188 388.808349609375 447.66259765625 386.9037475585938 C 449.1514282226562 384.578369140625 451.244140625 379.7984619140625 448.5317993164062 373.9114379882812 C 432.57080078125 339.2689208984375 446.1400451660156 297.52490234375 479.423583984375 278.8773803710938 C 485.477783203125 275.4853515625 486.3817749023438 269.9826354980469 486.3817749023438 267.0043640136719 C 486.3817749023438 264.0229187011719 485.4759521484375 258.5136413574219 479.409423828125 255.1147155761719 C 446.1337890625 236.4713745117188 432.57080078125 194.7306213378906 448.5318603515625 160.0881042480469 C 451.2452392578125 154.1990966796875 449.1525268554688 149.4189147949219 447.6635131835938 147.0936279296875 C 446.4443359375 145.1896362304688 442.9046936035156 140.760986328125 436.3872375488281 140.7613525390625 C 435.7930603027344 140.7614440917969 435.1881408691406 140.7979125976562 434.4458618164062 140.8852844238281 C 431.5434265136719 141.2267150878906 428.6590576171875 141.392822265625 425.8018798828125 141.392822265625 C 390.8479614257812 141.392822265625 360.505859375 116.4951782226562 353.6336975097656 82.084716796875 C 352.126220703125 74.53646850585938 345.5584106445312 71.09844970703125 340.0939636230469 71.09844970703125 C 336.71630859375 71.09844970703125 333.6741333007812 72.32501220703125 330.913330078125 74.87173461914062 C 317.2777099609375 87.4501953125 299.551513671875 94.37744140625 281.0001525878906 94.37744140625 C 262.4490661621094 94.37744140625 244.7230529785156 87.45034790039062 230.9478759765625 74.74343872070312 C 228.3252258300781 72.32427978515625 225.2837829589844 71.09771728515625 221.9080505371094 71.09799194335938 L 221.9078674316406 71.09799194335938 M 221.9057006835938 41.09796142578125 C 232.2031555175781 41.09719848632812 242.6704406738281 44.74252319335938 251.2886962890625 52.69235229492188 L 251.42822265625 52.82107543945312 C 268.1322326660156 68.2296142578125 293.868408203125 68.22946166992188 310.5722351074219 52.8209228515625 L 310.7107849121094 52.69308471679688 C 335.7374267578125 29.60708618164062 376.3847045898438 42.82028198242188 383.0527954101562 76.20953369140625 L 383.0741577148438 76.31655883789062 C 387.52685546875 98.61233520507812 408.3602294921875 113.7470092773438 430.9404907226562 111.0907287597656 L 431.0703125 111.075439453125 C 432.8668823242188 110.8640747070312 434.6412658691406 110.7615051269531 436.3841552734375 110.7614135742188 C 467.4632873535156 110.7597045898438 489.2772827148438 143.3449401855469 475.7789611816406 172.6419067382812 L 475.7787780761719 172.6423645019531 C 466.25732421875 193.3080139160156 474.2225952148438 217.8209838867188 494.0729675292969 228.942626953125 L 494.0870666503906 228.9505310058594 C 523.815673828125 245.6066284179688 523.815673828125 288.3935546875 494.0869750976562 305.049560546875 L 494.0732421875 305.0572509765625 C 474.2226867675781 316.1788330078125 466.2574157714844 340.69189453125 475.7788696289062 361.3577270507812 L 475.7789611816406 361.3577270507812 C 490.0341491699219 392.2976379394531 464.9031372070312 426.9048461914062 431.0704956054688 422.9242553710938 L 430.9403076171875 422.9089965820312 C 408.3600769042969 420.2523803710938 387.52685546875 435.387451171875 383.07421875 457.6831665039062 L 383.0527954101562 457.7903442382812 C 376.3847045898438 491.1796264648438 335.7374267578125 504.3929138183594 310.7107849121094 481.3067321777344 L 310.5719604492188 481.1787109375 C 293.8681945800781 465.7701110839844 268.1317749023438 465.7698974609375 251.4278869628906 481.1785278320312 L 251.2885131835938 481.3070983886719 C 226.2615966796875 504.3930969238281 185.6145935058594 491.1796264648438 178.9465942382812 457.7904663085938 L 178.9252319335938 457.683349609375 C 174.4725952148438 435.3875122070312 153.6390991210938 420.2523803710938 131.0590515136719 422.9089965820312 L 130.9277954101562 422.9244384765625 C 97.09478759765625 426.9049682617188 71.96441650390625 392.2982788085938 86.21914672851562 361.3583679199219 L 86.21969604492188 361.3569946289062 C 95.74078369140625 340.6915283203125 87.77560424804688 316.1788940429688 67.92559814453125 305.057373046875 L 67.9111328125 305.0492553710938 C 38.182861328125 288.3930969238281 38.182861328125 245.6067199707031 67.91104125976562 228.9506225585938 L 67.92578125 228.9423522949219 C 87.77578735351562 217.8208312988281 95.740966796875 193.3082580566406 86.21987915039062 172.642822265625 L 86.21914672851562 172.6411743164062 C 72.72232055664062 143.3460083007812 94.53860473632812 110.763671875 125.6143188476562 110.7611389160156 C 127.3591003417969 110.760986328125 129.1294860839844 110.8635559082031 130.9280700683594 111.0751953125 L 131.0590515136719 111.0906372070312 C 153.6395568847656 113.7472229003906 174.4728698730469 98.6121826171875 178.9254150390625 76.3162841796875 L 178.9468688964844 76.20907592773438 C 183.3186340332031 54.31787109375 202.3000183105469 41.09942626953125 221.9057006835938 41.09796142578125 Z" stroke="none" fill="#fc7f50"/>
    </g>
    <g id="Groupe_3" data-name="Groupe 3" transform="translate(-60 -5.36)">
      <g id="Groupe_2" data-name="Groupe 2" transform="translate(-559 -104.131)">
        <g id="Rectangle_1" data-name="Rectangle 1" transform="translate(1436 510.131)" fill="#333" stroke="#fc7f50" stroke-width="25">
          <rect width="184" height="184" rx="50" stroke="none"/>
          <rect x="12.5" y="12.5" width="159" height="159" rx="37.5" fill="none"/>
        </g>
        <rect id="Rectangle_2" data-name="Rectangle 2" width="128" height="129" transform="translate(1521 487.131)" fill="#333"/>
      </g>
      <g id="Groupe_1" data-name="Groupe 1" transform="translate(242.64 -823.298) rotate(52)">
        <g id="Polygone_2" data-name="Polygone 2" transform="translate(1431.207 87.47)" fill="#fc7f50">
          <path d="M 94.48674774169922 72.81723785400391 L 19.74416923522949 72.81723785400391 C 18.74533271789551 72.81723785400391 17.83896827697754 72.56015014648438 17.05025863647461 72.05313110351562 C 16.3077507019043 71.5758056640625 15.69687747955322 70.89225769042969 15.28365898132324 70.07640838623047 C 14.87044143676758 69.26052856445312 14.68085956573486 68.36362457275391 14.73538684844971 67.48260498046875 C 14.79331398010254 66.54678344726562 15.12235069274902 65.66398620605469 15.71336841583252 64.85877227783203 L 53.08465957641602 13.94205951690674 C 54.03691482543945 12.64464092254639 55.50609588623047 11.90054988861084 57.11545944213867 11.90054988861084 C 58.7248420715332 11.90054988861084 60.19400405883789 12.64464092254639 61.14625930786133 13.94204139709473 L 98.51754760742188 64.85877227783203 C 99.10856628417969 65.66398620605469 99.43760681152344 66.54678344726562 99.49552917480469 67.48260498046875 C 99.55005645751953 68.36362457275391 99.36048126220703 69.26055145263672 98.94725799560547 70.07640838623047 C 98.53404235839844 70.89225769042969 97.92317199707031 71.5758056640625 97.18065643310547 72.05313110351562 C 96.3919677734375 72.56015014648438 95.48560333251953 72.81723785400391 94.48674774169922 72.81723785400391 Z" stroke="none"/>
          <path d="M 57.11545944213867 16.90052032470703 L 57.11545944213867 16.90054321289062 L 19.74416351318359 67.81723022460938 L 94.48673248291016 67.81725311279297 L 57.13898086547852 16.9029541015625 C 57.13664245605469 16.90227508544922 57.12786865234375 16.90052032470703 57.11545944213867 16.90052032470703 M 57.11545944213867 6.900535583496094 C 60.14732360839844 6.900535583496094 63.1791877746582 8.261543273925781 65.17707824707031 10.98356628417969 L 102.5483474731445 61.90027236938477 C 107.3960723876953 68.50504302978516 102.6796417236328 77.81723022460938 94.48675537109375 77.81723022460938 L 19.74416351318359 77.81723022460938 C 11.55127716064453 77.81723022460938 6.834846496582031 68.50504302978516 11.68257141113281 61.90027236938477 L 49.05384826660156 10.98356628417969 C 51.05173110961914 8.261543273925781 54.08359527587891 6.900535583496094 57.11545944213867 6.900535583496094 Z" stroke="none" fill="#fc7f50"/>
        </g>
        <g id="Rectangle_3" data-name="Rectangle 3" transform="translate(1472.067 147.184)" fill="#fc7f50" stroke="#fc7f50" stroke-width="1">
          <rect width="34.097" height="100.629" rx="10" stroke="none"/>
          <rect x="0.5" y="0.5" width="33.097" height="99.629" rx="9.5" fill="none"/>
        </g>
      </g>
    </g>
  </g>
</svg>
